<?xml version="1.0" encoding="UTF-8"?> <svg xmlns="http://www.w3.org/2000/svg" xmlns:xlink="http://www.w3.org/1999/xlink" viewBox="0 0 105.08 18"><defs><style>.cls-1{fill:#0078d4;}.cls-2{fill:url(#linear-gradient);}.cls-3{fill:#50e6ff;}.cls-4{fill:url(#linear-gradient-2);}.cls-5{fill:url(#linear-gradient-3);}.cls-6{fill:url(#linear-gradient-4);}.cls-7{fill:url(#linear-gradient-5);}.cls-8{fill:url(#linear-gradient-6);}.cls-9{fill:url(#linear-gradient-7);}.cls-10{fill:url(#linear-gradient-8);}.cls-11{fill:url(#linear-gradient-9);}.cls-12{fill:url(#linear-gradient-10);}.cls-13{fill:url(#linear-gradient-11);}.cls-14{fill:url(#linear-gradient-12);}.cls-15{fill:url(#linear-gradient-13);}.cls-16{fill:url(#linear-gradient-14);}</style><linearGradient id="linear-gradient" x1="-556.15" y1="248.23" x2="-556.15" y2="253.61" gradientTransform="matrix(1, 0, 0, -1, 564, 253.61)" gradientUnits="userSpaceOnUse"><stop offset="0.2" stop-color="#005ba1"></stop><stop offset="1" stop-color="#0078d4"></stop></linearGradient><linearGradient id="linear-gradient-2" x1="-556.15" y1="240.9" x2="-556.15" y2="248.33" gradientTransform="matrix(1, 0, 0, -1, 564, 253.61)" gradientUnits="userSpaceOnUse"><stop offset="0" stop-color="#198ab3"></stop><stop offset="0.17" stop-color="#32bedd"></stop><stop offset="0.5" stop-color="#50e6ff"></stop><stop offset="0.5" stop-color="#4fe4fd"></stop><stop offset="0.5" stop-color="#4bddf8"></stop><stop offset="0.5" stop-color="#44d2ee"></stop><stop offset="0.5" stop-color="#3ac1e0"></stop><stop offset="0.5" stop-color="#2dabce"></stop><stop offset="0.5" stop-color="#1d90b8"></stop><stop offset="0.5" stop-color="#198ab3"></stop><stop offset="0.66" stop-color="#32bedd"></stop><stop offset="0.97" stop-color="#50e6ff"></stop></linearGradient><linearGradient id="linear-gradient-3" x1="15.04" y1="10.66" x2="172.71" y2="-13.34" gradientTransform="matrix(1, 0, 0, 1, 0, 0)" xlink:href="#linear-gradient"></linearGradient><linearGradient id="linear-gradient-4" x1="15.35" y1="12.68" x2="173.02" y2="-11.32" gradientTransform="matrix(1, 0, 0, 1, 0, 0)" xlink:href="#linear-gradient"></linearGradient><linearGradient id="linear-gradient-5" x1="15.5" y1="13.65" x2="173.16" y2="-10.35" gradientTransform="matrix(1, 0, 0, 1, 0, 0)" xlink:href="#linear-gradient"></linearGradient><linearGradient id="linear-gradient-6" x1="15.62" y1="14.44" x2="173.28" y2="-9.56" gradientTransform="matrix(1, 0, 0, 1, 0, 0)" xlink:href="#linear-gradient"></linearGradient><linearGradient id="linear-gradient-7" x1="15.76" y1="15.39" x2="173.43" y2="-8.61" gradientTransform="matrix(1, 0, 0, 1, 0, 0)" xlink:href="#linear-gradient"></linearGradient><linearGradient id="linear-gradient-8" x1="15.83" y1="15.82" x2="173.49" y2="-8.18" gradientTransform="matrix(1, 0, 0, 1, 0, 0)" xlink:href="#linear-gradient"></linearGradient><linearGradient id="linear-gradient-9" x1="16.3" y1="18.95" x2="173.97" y2="-5.05" gradientTransform="matrix(1, 0, 0, 1, 0, 0)" xlink:href="#linear-gradient"></linearGradient><linearGradient id="linear-gradient-10" x1="16.33" y1="19.12" x2="174" y2="-4.88" gradientTransform="matrix(1, 0, 0, 1, 0, 0)" xlink:href="#linear-gradient"></linearGradient><linearGradient id="linear-gradient-11" x1="16.51" y1="20.27" x2="174.17" y2="-3.73" gradientTransform="matrix(1, 0, 0, 1, 0, 0)" xlink:href="#linear-gradient"></linearGradient><linearGradient id="linear-gradient-12" x1="16.78" y1="22.05" x2="174.44" y2="-1.95" gradientTransform="matrix(1, 0, 0, 1, 0, 0)" xlink:href="#linear-gradient"></linearGradient><linearGradient id="linear-gradient-13" x1="16.8" y1="22.22" x2="174.47" y2="-1.78" gradientTransform="matrix(1, 0, 0, 1, 0, 0)" xlink:href="#linear-gradient"></linearGradient><linearGradient id="linear-gradient-14" x1="16.96" y1="23.23" x2="174.62" y2="-0.77" gradientTransform="matrix(1, 0, 0, 1, 0, 0)" xlink:href="#linear-gradient"></linearGradient></defs><title>Asset 2</title><g id="Layer_2" data-name="Layer 2"><g id="Layer_1-2" data-name="Layer 1"><path class="cls-1" d="M7.85,0,0,4.49v9L7.85,18l7.85-4.49v-9Zm6.4,12.57-6.4,3.7-6.4-3.66V5.38l6.4-3.7,6.4,3.71Z"></path><path class="cls-2" d="M7.85,0,0,4.49l1.45.89,6.4-3.7,6.4,3.7,1.45-.89Z"></path><path class="cls-3" d="M11.59,10.48a.74.74,0,0,0-.32-.29A5.84,5.84,0,0,0,6.79,6.84L13.27,3.1l-1.51-.86L4.38,6.5a.75.75,0,0,0-.27,1,.73.73,0,0,0,.65.38l.09,0L5,8.4a4.31,4.31,0,0,1,4.83,2.24L2.46,14.89l1.5.86,7.36-4.25a.78.78,0,0,0,.24-.24h.07s0-.06,0-.09A.71.71,0,0,0,11.59,10.48Z"></path><path class="cls-4" d="M10.94,9a1.85,1.85,0,1,0,1.85,1.85A1.85,1.85,0,0,0,10.94,9ZM4.76,5.27A1.85,1.85,0,1,0,6.61,7.12h0A1.85,1.85,0,0,0,4.76,5.27Z"></path><path class="cls-5" d="M28.15,13.36H26.26l-.75-1.95H22.08l-.71,1.95H19.53l3.35-8.59h1.83ZM25,10,23.77,6.78,22.61,10Z"></path><path class="cls-6" d="M28.4,13.36V12.08L30.73,9.4c.38-.44.66-.75.85-.93l-.76,0h-2.2V7.14h5.15V8.31l-2.38,2.74-.84.91.85-.05H34v1.45Z"></path><path class="cls-7" d="M39.15,13.36v-.93a2.43,2.43,0,0,1-.89.79,2.52,2.52,0,0,1-1.17.28A2.29,2.29,0,0,1,36,13.23a1.56,1.56,0,0,1-.72-.78A3.39,3.39,0,0,1,35,11.08V7.14h1.65V10a8.08,8.08,0,0,0,.09,1.61.92.92,0,0,0,.33.47,1,1,0,0,0,.61.17,1.36,1.36,0,0,0,.76-.23,1.2,1.2,0,0,0,.45-.58A6.14,6.14,0,0,0,39,9.76V7.14h1.64v6.22Z"></path><path class="cls-8" d="M44,13.36H42.32V7.14h1.53V8a2.65,2.65,0,0,1,.7-.82,1.33,1.33,0,0,1,.71-.2,2.08,2.08,0,0,1,1.09.31l-.51,1.43a1.53,1.53,0,0,0-.77-.26.91.91,0,0,0-.59.19,1.24,1.24,0,0,0-.38.68A9.94,9.94,0,0,0,44,11.44Z"></path><path class="cls-9" d="M50.66,11.38l1.64.28a2.64,2.64,0,0,1-1,1.37,2.87,2.87,0,0,1-1.7.47,2.78,2.78,0,0,1-2.41-1.06,3.54,3.54,0,0,1-.61-2.14,3.46,3.46,0,0,1,.81-2.43,2.67,2.67,0,0,1,2-.87,2.72,2.72,0,0,1,2.19.92,4,4,0,0,1,.77,2.81H48.26a1.76,1.76,0,0,0,.4,1.14,1.25,1.25,0,0,0,1,.4,1,1,0,0,0,.65-.21A1.29,1.29,0,0,0,50.66,11.38Zm.1-1.66a1.66,1.66,0,0,0-.37-1.09,1.2,1.2,0,0,0-1.75,0,1.57,1.57,0,0,0-.35,1.07Z"></path><path class="cls-10" d="M56.64,10.57l1.69-.17a2,2,0,0,0,.61,1.25,1.85,1.85,0,0,0,1.26.4,2,2,0,0,0,1.26-.35,1.06,1.06,0,0,0,.43-.83.77.77,0,0,0-.18-.52,1.34,1.34,0,0,0-.62-.37c-.21-.07-.67-.2-1.39-.38a4.64,4.64,0,0,1-2-.85,2.27,2.27,0,0,1-.42-3,2.38,2.38,0,0,1,1.07-.87,4.49,4.49,0,0,1,1.69-.29,3.66,3.66,0,0,1,2.44.7,2.56,2.56,0,0,1,.86,1.9l-1.74.07a1.42,1.42,0,0,0-.48-1,1.75,1.75,0,0,0-1.09-.29,2,2,0,0,0-1.19.31.63.63,0,0,0-.27.54.67.67,0,0,0,.25.52,4.68,4.68,0,0,0,1.6.57,8.56,8.56,0,0,1,1.87.62,2.42,2.42,0,0,1,1,.87,2.56,2.56,0,0,1,.34,1.37,2.53,2.53,0,0,1-1.57,2.34,4.84,4.84,0,0,1-1.87.31,3.73,3.73,0,0,1-2.5-.75A3.25,3.25,0,0,1,56.64,10.57Z"></path><path class="cls-11" d="M64.29,7.14H66l1.49,4.42L69,7.14h1.71l-2.2,6-.39,1.08a4.55,4.55,0,0,1-.41.83,1.87,1.87,0,0,1-.46.47,2,2,0,0,1-.62.28,3.58,3.58,0,0,1-.84.1,4.73,4.73,0,0,1-.93-.1l-.15-1.29a3.76,3.76,0,0,0,.7.08,1.06,1.06,0,0,0,.85-.34,2.47,2.47,0,0,0,.42-.86Z"></path><path class="cls-12" d="M77.4,13.36H75.76V10.19a4.88,4.88,0,0,0-.11-1.31.93.93,0,0,0-.34-.46,1,1,0,0,0-.57-.16,1.37,1.37,0,0,0-.77.23,1.25,1.25,0,0,0-.47.62,5.67,5.67,0,0,0-.12,1.43v2.82H71.73V7.14h1.53v.91a2.5,2.5,0,0,1,2-1.05,2.32,2.32,0,0,1,1,.2,1.57,1.57,0,0,1,.68.5,1.82,1.82,0,0,1,.32.69,5.13,5.13,0,0,1,.09,1.1Z"></path><path class="cls-13" d="M80.3,9l-1.49-.27a2.36,2.36,0,0,1,.87-1.34A3.17,3.17,0,0,1,81.51,7a4,4,0,0,1,1.64.26,1.54,1.54,0,0,1,.75.66,3.37,3.37,0,0,1,.22,1.48v1.92a6.09,6.09,0,0,0,.08,1.21,3.44,3.44,0,0,0,.29.83H82.85l-.16-.48a1.82,1.82,0,0,0,0-.2,3.07,3.07,0,0,1-.91.62,2.69,2.69,0,0,1-1,.2A2.13,2.13,0,0,1,79.19,13a1.74,1.74,0,0,1-.55-1.32,1.76,1.76,0,0,1,.25-.94,1.74,1.74,0,0,1,.71-.63,5.38,5.38,0,0,1,1.31-.38,9,9,0,0,0,1.6-.41V9.14a.85.85,0,0,0-.24-.68,1.42,1.42,0,0,0-.88-.2,1.26,1.26,0,0,0-.69.17A1.32,1.32,0,0,0,80.3,9Zm2.21,1.33c-.21.07-.55.16-1,.26a3,3,0,0,0-.9.28.69.69,0,0,0-.32.58.82.82,0,0,0,.25.6.91.91,0,0,0,.66.25,1.45,1.45,0,0,0,.85-.29,1,1,0,0,0,.39-.55,2.81,2.81,0,0,0,.07-.8Z"></path><path class="cls-14" d="M85.7,7.14h1.54v.91a2.25,2.25,0,0,1,.8-.76A2.3,2.3,0,0,1,89.18,7,2.34,2.34,0,0,1,91,7.85a3.39,3.39,0,0,1,.76,2.37A3.55,3.55,0,0,1,91,12.64a2.39,2.39,0,0,1-1.85.86,2.18,2.18,0,0,1-.93-.2,3.11,3.11,0,0,1-.88-.71v3.14H85.7Zm1.63,3a2.41,2.41,0,0,0,.42,1.55,1.26,1.26,0,0,0,1,.5,1.2,1.2,0,0,0,.95-.46,2.34,2.34,0,0,0,.39-1.51,2.29,2.29,0,0,0-.4-1.46,1.22,1.22,0,0,0-1-.47,1.23,1.23,0,0,0-1,.47A2,2,0,0,0,87.33,10.15Z"></path><path class="cls-15" d="M92.5,11.59l1.65-.26a1.15,1.15,0,0,0,.43.73,1.4,1.4,0,0,0,.9.25,1.58,1.58,0,0,0,1-.23.52.52,0,0,0,.22-.44.41.41,0,0,0-.12-.31,1.34,1.34,0,0,0-.55-.22,9,9,0,0,1-2.53-.8,1.6,1.6,0,0,1-.73-1.4,1.74,1.74,0,0,1,.63-1.36,3,3,0,0,1,2-.55,3.49,3.49,0,0,1,1.89.41,2.13,2.13,0,0,1,.86,1.24l-1.55.28a1,1,0,0,0-.38-.55,1.39,1.39,0,0,0-.8-.2,1.81,1.81,0,0,0-.93.18.41.41,0,0,0-.18.34.37.37,0,0,0,.16.3A6.24,6.24,0,0,0,96,9.46a4.54,4.54,0,0,1,1.83.73,1.52,1.52,0,0,1,.52,1.23,1.89,1.89,0,0,1-.71,1.47,3.19,3.19,0,0,1-2.12.61,3.48,3.48,0,0,1-2-.51A2.36,2.36,0,0,1,92.5,11.59Z"></path><path class="cls-16" d="M103.35,11.38l1.65.28A2.75,2.75,0,0,1,104,13a2.92,2.92,0,0,1-1.71.47,2.77,2.77,0,0,1-2.4-1.06,3.54,3.54,0,0,1-.62-2.14,3.46,3.46,0,0,1,.81-2.43,2.67,2.67,0,0,1,2-.87,2.76,2.76,0,0,1,2.2.92,4,4,0,0,1,.76,2.81H101a1.66,1.66,0,0,0,.4,1.14,1.24,1.24,0,0,0,1,.4,1,1,0,0,0,.65-.21A1.35,1.35,0,0,0,103.35,11.38Zm.1-1.66a1.6,1.6,0,0,0-.37-1.09,1.12,1.12,0,0,0-.86-.37,1.15,1.15,0,0,0-.89.39A1.51,1.51,0,0,0,101,9.72Z"></path></g></g></svg> 