<svg  xmlns="http://www.w3.org/2000/svg" viewBox="0 0 300 150">
<path d="M124.16,75.18a11.12,11.12,0,0,0,.44,3.51,18.88,18.88,0,0,0,1.28,2.83,1.85,1.85,0,0,1,.27.89,1.49,1.49,0,0,1-.75,1.17l-2.48,1.66a2,2,0,0,1-1,.34,1.64,1.64,0,0,1-1.17-.55,9.15,9.15,0,0,1-1.41-1.82c-.39-.67-.8-1.44-1.21-2.31a14.56,14.56,0,0,1-11.58,5.44,10.76,10.76,0,0,1-7.85-2.82,10.14,10.14,0,0,1-2.9-7.59,10.12,10.12,0,0,1,3.59-8.09q3.57-3.07,9.64-3.07a28.88,28.88,0,0,1,4.17.31c1.45.21,3,.49,4.52.86V63.05q0-4.48-1.86-6.31t-6.41-1.83a18.55,18.55,0,0,0-4.24.52,29.86,29.86,0,0,0-4.24,1.35,11,11,0,0,1-1.38.51,2.79,2.79,0,0,1-.62.11c-.55,0-.83-.42-.83-1.25V54.23a2.59,2.59,0,0,1,.28-1.38,2.81,2.81,0,0,1,1.1-.83,25.44,25.44,0,0,1,5-1.79,23.83,23.83,0,0,1,6.13-.76q7,0,10.3,3.2t3.28,9.69Zm-16,6a12.71,12.71,0,0,0,4.06-.72A8.47,8.47,0,0,0,116,77.93a6.08,6.08,0,0,0,1.35-2.51,13.43,13.43,0,0,0,.38-3.41V70.35a35.32,35.32,0,0,0-3.62-.65,29.4,29.4,0,0,0-3.69-.24c-2.62,0-4.57.52-5.86,1.58a6.51,6.51,0,0,0-.48,8.72A5.69,5.69,0,0,0,108.17,81.17Zm31.63,4.28a2.48,2.48,0,0,1-1.52-.38,3.14,3.14,0,0,1-.82-1.55l-9.24-30.47a7,7,0,0,1-.34-1.58.86.86,0,0,1,1-1h3.86a2.44,2.44,0,0,1,1.55.38,3.32,3.32,0,0,1,.79,1.55l6.62,26.05,6.13-26.05a2.85,2.85,0,0,1,.76-1.55,2.61,2.61,0,0,1,1.59-.38h3.17a2.6,2.6,0,0,1,1.58.38,2.78,2.78,0,0,1,.76,1.55l6.2,26.4,6.83-26.4a3.32,3.32,0,0,1,.79-1.55A2.44,2.44,0,0,1,171,50.5h3.65a.86.86,0,0,1,1,1,3.79,3.79,0,0,1-.07.62,9.06,9.06,0,0,1-.28,1l-9.51,30.47a3.14,3.14,0,0,1-.82,1.55,2.5,2.5,0,0,1-1.52.38h-3.38a2.39,2.39,0,0,1-1.58-.42,2.93,2.93,0,0,1-.76-1.58l-6.13-25.37-6.07,25.37a2.93,2.93,0,0,1-.76,1.58,2.39,2.39,0,0,1-1.58.42Zm50.59,1a26.71,26.71,0,0,1-6.07-.69,17.71,17.71,0,0,1-4.55-1.59,2.66,2.66,0,0,1-1.2-1.1,2.73,2.73,0,0,1-.24-1.1V80c0-.83.29-1.24.89-1.24a2.24,2.24,0,0,1,.73.14c.25.09.58.23,1,.41a20.69,20.69,0,0,0,4.35,1.38,23.24,23.24,0,0,0,4.68.48,10.59,10.59,0,0,0,5.76-1.31,4.18,4.18,0,0,0,2-3.72,3.83,3.83,0,0,0-1.07-2.76,10.14,10.14,0,0,0-4-2.06L187,69.53a12.25,12.25,0,0,1-6.31-4,9.32,9.32,0,0,1-2-5.72,8.69,8.69,0,0,1,1.07-4.38,10.65,10.65,0,0,1,2.82-3.24,12.59,12.59,0,0,1,4.1-2,17.5,17.5,0,0,1,5-.69,21.81,21.81,0,0,1,2.65.17c.9.12,1.74.27,2.55.45a23.22,23.22,0,0,1,2.24.62,9.77,9.77,0,0,1,1.65.69,3.74,3.74,0,0,1,1.17,1,2.23,2.23,0,0,1,.35,1.31v1.86c0,.83-.3,1.25-.9,1.25a4.26,4.26,0,0,1-1.51-.49,18.32,18.32,0,0,0-7.58-1.51,10.27,10.27,0,0,0-5.24,1.1,4.11,4.11,0,0,0-.69,6.31,11.84,11.84,0,0,0,4.34,2.17l5.58,1.79a12,12,0,0,1,6.1,3.79,8.87,8.87,0,0,1,1.83,5.51,10.13,10.13,0,0,1-1,4.59,10.55,10.55,0,0,1-2.87,3.48,12.74,12.74,0,0,1-4.37,2.2A19.35,19.35,0,0,1,190.39,86.48Z" fill="#FFFFFF"></path>
<path d="M197.84,105.87c-13,9.57-31.77,14.66-48,14.66A86.82,86.82,0,0,1,91.31,98.19c-1.22-1.1-.13-2.6,1.33-1.75A117.81,117.81,0,0,0,151.25,112a116.52,116.52,0,0,0,44.7-9.15C198.14,101.91,200,104.29,197.84,105.87Z" fill="#FFFFFF"></path>
<path d="M203.23,99.71c-1.66-2.12-11-1-15.14-.5-1.27.15-1.46-1-.32-1.76,7.42-5.21,19.58-3.71,21-2s-.37,14-7.33,19.77c-1.07.9-2.08.42-1.61-.76C201.39,110.59,204.89,101.84,203.23,99.71Z" fill="#FFFFFF"></path>
</svg>