<svg xmlns="http://www.w3.org/2000/svg" viewBox="0 0 300 150">
<path d="M112.3 67.89H95.07V73h12.22c-.6 7.17-6.57 10.23-12.2 10.23a13.66 13.66 0 010-27.31 13.28 13.28 0 019.21 3.69l3.58-3.71a18.2 18.2 0 00-13-5.11 18.79 18.79 0 10.28 37.57c10 0 17.42-6.89 17.42-17.08a14.94 14.94 0 00-.32-3.39zm14.12-3.7a12.08 12.08 0 1012.12 12.11c0-8-6.31-12.11-12.12-12.11zm.07 4.74c3.48 0 6.77 2.81 6.77 7.34a7 7 0 01-6.78 7.33c-3.86 0-6.9-3.09-6.9-7.36a7 7 0 016.91-7.31zm26.33-4.74a12.08 12.08 0 1012.12 12.11c0-8-6.3-12.11-12.12-12.11zm.07 4.74c3.48 0 6.78 2.81 6.78 7.34a7 7 0 01-6.79 7.33c-3.86 0-6.9-3.09-6.9-7.36a7 7 0 016.91-7.31zm25.83-4.73c-6.49 0-11.59 5.68-11.59 12.06a11.91 11.91 0 0011.48 12.09 8 8 0 006.62-2.93v2.38c0 4.17-2.53 6.66-6.35 6.66a6.68 6.68 0 01-6.18-4.3l-4.64 1.94c1.65 3.48 5 7.11 10.86 7.11 6.45 0 11.37-4.06 11.37-12.59v-21.7h-5.06v2a8.54 8.54 0 00-6.51-2.72zm.47 4.73c3.18 0 6.45 2.72 6.45 7.36s-3.26 7.32-6.52 7.32c-3.46 0-6.68-2.81-6.68-7.28 0-4.63 3.34-7.4 6.75-7.4zm33.61-4.76c-6.12 0-11.26 4.87-11.26 12.06a11.68 11.68 0 0011.85 12.12 12.27 12.27 0 0010.12-5.3l-4.18-2.78a6.74 6.74 0 01-5.91 3.32 6.22 6.22 0 01-5.93-3.66l16.2-6.72-.84-2a11 11 0 00-10-7.08zm.21 4.64a4.82 4.82 0 014.47 2.58l-10.81 4.52c-.47-3.5 2.85-7.1 6.33-7.1zm-19.19 18.82h5.32V52h-5.32z" fill="#FFFFFF"></path>
</svg>