<svg xmlns="http://www.w3.org/2000/svg" viewBox="0 0 300 150">
    <path d="M48.14 54.86H69v20.87H48.14V54.86z" fill="#FFFFFF"></path>
    <path d="M71.15 54.86H92v20.87H71.15V54.86z" fill="#FFFFFF"></path>
    <path
        d="M236.38 62.81A8.23 8.23 0 01243 62v3.87a4.31 4.31 0 00-3.33-.3 2.62 2.62 0 00-1.5 2.1 27.26 27.26 0 00-.09 3.38h6.6v-4.28c1.5-.43 3-.91 4.47-1.36v5.65h4.46v3.67c-1.49-.06-3 0-4.48 0v6.32c0 1.17-.06 2.35.08 3.51a2.28 2.28 0 001 1.8 3.37 3.37 0 003.43-.32v3.7a8.8 8.8 0 01-4.12.63 5 5 0 01-3.56-1.63 6.73 6.73 0 01-1.28-4.31v-9.71h-6.61V90h-4.51V74.78h-3.15v-3.61h3.13c.08-1.6-.17-3.25.31-4.81a6.22 6.22 0 012.55-3.48zM139.72 63.08a2.76 2.76 0 012.5.88 2.59 2.59 0 01.32 2.94 2.84 2.84 0 01-3 1.26 2.58 2.58 0 01-2.1-2.52 2.62 2.62 0 012.29-2.56zM105.13 63.64h6.56q3.06 7.78 6.15 15.56c.52 1.3 1 2.61 1.56 3.9 2.63-6.49 5.29-13 7.9-19.45h6.32V90h-4.56V70.58v-.87a2.13 2.13 0 00-.23.42c-2.61 6.63-5.27 13.23-7.87 19.87h-3.24c-2.69-6.63-5.35-13.27-8-19.91-.07-.14-.14-.27-.22-.4-.06 2.84 0 5.68 0 8.52V90h-4.29V63.68zM152.15 71.08a12.3 12.3 0 016.7 0 5.39 5.39 0 011.29.53v4.32a7.16 7.16 0 00-5.14-1.56 5.3 5.3 0 00-3.75 2.08 7.3 7.3 0 00-1.25 5.23 5.31 5.31 0 006.05 5 8.51 8.51 0 004-1.66v4.09a11 11 0 01-6.05 1.28 9.19 9.19 0 01-5.89-2.45 9.42 9.42 0 01-2.73-6.32 11.43 11.43 0 011.79-7 9 9 0 015-3.54zM201.46 70.79a11.91 11.91 0 016.25.65v4.15a8 8 0 00-4.74-1.4 2.44 2.44 0 00-2.16 1.19 2 2 0 00.66 2.31c1.28.86 2.8 1.22 4.13 2a5.92 5.92 0 012.59 2.46 5.51 5.51 0 01-1.19 6.34 8.64 8.64 0 01-6.28 1.91 13.41 13.41 0 01-4.59-1.05v-4.37a9.79 9.79 0 004.09 1.77 5.28 5.28 0 003.12-.28 1.81 1.81 0 00.54-2.57 5.31 5.31 0 00-2-1.29 18.9 18.9 0 01-3.9-2 4.71 4.71 0 01-1.69-2.56 5.76 5.76 0 01.63-4.5 6.69 6.69 0 014.49-2.76zM170.24 71.38a5.13 5.13 0 014.18-.35v4.52a4.75 4.75 0 00-3-.72 3.74 3.74 0 00-2.82 2.26 8.32 8.32 0 00-.65 3.85v9h-4.45V71.08h4.46v3.24a5.86 5.86 0 012.34-3zM137.84 71.1h4.49v18.85h-4.48V71.09zM182.73 70.75a12 12 0 016.47.77 8 8 0 013.94 4 12.48 12.48 0 01.9 6 10 10 0 01-2 5.5 8.73 8.73 0 01-5.18 3.19 12.92 12.92 0 01-5.29 0 8.6 8.6 0 01-5.21-3.4 10.85 10.85 0 01-1.66-7 10.1 10.1 0 012.09-5.76 9 9 0 015.93-3.18zm1.35 3.59a4.7 4.7 0 00-3 1.17 6 6 0 00-1.75 3.94 8.77 8.77 0 00.69 4.72 4.51 4.51 0 002.83 2.33 6 6 0 003.68-.16 4.12 4.12 0 002.22-2.18 9.79 9.79 0 00.63-4.61 6.07 6.07 0 00-1.55-3.93 4.85 4.85 0 00-3.78-1.28zM218.71 70.75a11.7 11.7 0 016.71.91 8 8 0 013.87 4.39 11.9 11.9 0 01.71 4.5 10.37 10.37 0 01-2 6.45 8.76 8.76 0 01-5.55 3.24 12 12 0 01-6.36-.54 8.34 8.34 0 01-4.58-4.44 12.55 12.55 0 01-.71-6.56 8.83 8.83 0 018-7.93zm1.22 3.59a4.62 4.62 0 00-3.29 1.58 6.48 6.48 0 00-1.37 3.76 9 9 0 00.54 4.11 4.57 4.57 0 002.38 2.49 6 6 0 003.23.35 4.27 4.27 0 002.64-1.42 5.8 5.8 0 001.16-2.77 11.37 11.37 0 000-4 5.13 5.13 0 00-1.63-3 5 5 0 00-3.62-1.07z"
        fill="#FFFFFF"
    ></path>
    <path d="M48.14 77.86H69v20.88H48.14V77.86z" fill="#FFFFFF"></path>
    <path
        d="M71.15 77.87h20.87v20.87H71.15V77.87z"
        fill="#FFFFFF"
    ></path>
</svg>