<svg xmlns="http://www.w3.org/2000/svg" viewBox="0 0 300 150">
    <path
        d="M100.65 58.12a52.06 52.06 0 00-6.74.69c-8 1.67-15.08 5.84-18.7 13.36-2.14 4.46-3 8.94-5.24 13.29a18.13 18.13 0 01-8.66 8.62 16.88 16.88 0 01-3.46 1.18l.09-.07-.09.07c-.45-.44-.87-.89-1.28-1.36a22.7 22.7 0 0121.06-37.28l.73.14a15.41 15.41 0 00-2.46 1.42c-15.18-1.63-21.75 11.14-22.81 17.17A20.85 20.85 0 0058 92.85c.42.47.85.93 1.31 1.36A17.22 17.22 0 0065 88.82c2.58-3.65 3.47-7.2 4-11.27 1.44-10.31 3.63-19.68 16.26-21a38.59 38.59 0 015.69 0c2.1.23 8.06.77 9.63 1.62M57.94 95.19l.14-.1-.14.1m.28-.21l.13-.08-.13.08m.27-.18l.12-.09-.12.09m.13-.09l.12-.09-.12.09m.13-.09l.12-.09-.12.09m.24-.17l.11-.08-.11.08m-.91.64l.14-.1-.14.1m.27-.2l.13-.09-.13.09"
        fillRule="evenodd"
        fill="#FFFFFF"
    ></path>
    <path
        d="M94.28 82.61c-1 5.92-7.38 18.49-22.35 17.21a15.44 15.44 0 01-2.52 1.46l.33.06A22.71 22.71 0 0091 64.27c-.4-.47-.81-.91-1.24-1.34-1.47-.05-5.44 2.14-6.94 3.35-9.3 7.53-5.48 9.89-10.48 19.91-4.8 9.65-16.17 14.23-25.7 13.81a53.47 53.47 0 007.6 1.47c8 1.15 17.81 0 21.55-9.1S77.33 77 82.54 69.44a21.05 21.05 0 013.3-3.72A18.31 18.31 0 0188.25 64c.44.44.87.89 1.28 1.37a20.85 20.85 0 014.75 17.28"
        fill="#FFFFFF"
        fillRule="evenodd"
    ></path>
    <path
        d="M113.42 87.13a8.78 8.78 0 004.09-.95 8.92 8.92 0 003-2.61 12.35 12.35 0 001.88-3.93 18.63 18.63 0 000-9.83 12.45 12.45 0 00-1.88-3.93 9.07 9.07 0 00-11.22-2.61 8.68 8.68 0 00-3 2.61 12.24 12.24 0 00-1.88 3.93 18.91 18.91 0 000 9.83 12.14 12.14 0 001.88 3.93 8.54 8.54 0 007.11 3.56m0-3.52a4.38 4.38 0 01-2.39-.69 5.58 5.58 0 01-1.73-1.92 9.8 9.8 0 01-1.07-2.82 17.19 17.19 0 010-7 9.69 9.69 0 011.07-2.82 5.54 5.54 0 011.72-1.83 4.54 4.54 0 014.78 0 5.42 5.42 0 011.74 1.87 9.69 9.69 0 011.07 2.82 16.74 16.74 0 010 7 9.8 9.8 0 01-1.04 2.78 5.46 5.46 0 01-1.74 1.88 4.4 4.4 0 01-2.39.69m27.89 3.09V66.93h-3.7v12.69l-7.12-12.69h-3.88V86.7h3.7V73.61l7.3 13.09zm15.82 0v-3.2h-7.87v-5.25H157V75h-7.69v-4.84h7.87v-3.23h-11.63V86.7z"
        fill="#FFFFFF"
    ></path>
    <path
        d="M167.74 87.13a8.42 8.42 0 003.13-.55 5.79 5.79 0 003.38-3.48 7.27 7.27 0 00.39-2.37 7 7 0 00-.47-2.61 6 6 0 00-1.23-1.93 9.31 9.31 0 00-1.73-1.45 22 22 0 00-2-1.15l-2-1a12.35 12.35 0 01-1.74-1.11 4.69 4.69 0 01-1.23-1.37 3.63 3.63 0 01-.47-1.81 4 4 0 01.6-2.17 3.82 3.82 0 011.56-1.42 4.68 4.68 0 012.19-.51 6.86 6.86 0 012.69.51 5.73 5.73 0 012.2 1.65l1.15-1.51a7.3 7.3 0 00-2.57-1.85 8.8 8.8 0 00-3.42-.64 7.46 7.46 0 00-2.53.42 6 6 0 00-2 1.22 5.59 5.59 0 00-1.39 1.89 6.46 6.46 0 000 4.91 5.84 5.84 0 001.23 1.78 10 10 0 001.74 1.33q1 .59 2 1.08c.68.34 1.35.68 2 1a11.05 11.05 0 011.74 1.18 5.08 5.08 0 011.23 1.55 4.47 4.47 0 01.47 2.11 5.07 5.07 0 01-.27 1.66 4 4 0 01-.87 1.43 4.14 4.14 0 01-1.51 1 6.23 6.23 0 01-2.2.38 6.94 6.94 0 01-2.22-.38 6.64 6.64 0 01-1.87-1 6.73 6.73 0 01-1.41-1.35L161 84.15a8.28 8.28 0 001.76 1.57 8.66 8.66 0 002.26 1 10.07 10.07 0 002.7.37m16-.43V68.62h4.75v-1.69h-11.4v1.69h4.71V86.7zm19.48 0l-4.56-8.34a4.61 4.61 0 002.21-.86 4.79 4.79 0 001.51-1.9 7.09 7.09 0 00.56-2.85 7.17 7.17 0 00-.36-2.31 5.48 5.48 0 00-1-1.84 4.76 4.76 0 00-1.72-1.23 5.92 5.92 0 00-2.34-.44h-5.64V86.7h1.9v-8.09h3L201 86.7zm-5.89-9.78h-3.6v-8.3h3.6a3.55 3.55 0 012 .54 3.28 3.28 0 011.21 1.46 5.29 5.29 0 01.41 2.13 5.36 5.36 0 01-.4 2.15 3.29 3.29 0 01-1.2 1.47 3.67 3.67 0 01-2 .55m20.24 9.78V85h-8.34v-7.61h8.12V75.7h-8.12v-7.08h8.34v-1.69h-10.29V86.7zm8.3-19.77l-6.26 19.81h2.09l1.43-4.82h7.59l1.44 4.82h2.08L228 66.93zm4.42 13.23h-6.68l3.37-10.9zm22.9 6.54V66.93h-2.66l-5.36 15.71-5.35-15.71h-2.63V86.7h1.91V70.05l5.6 16.65h.87l5.68-16.65V86.7z"
        fill="#FFFFFF"
    ></path>
</svg>