<svg xmlns="http://www.w3.org/2000/svg" viewBox="0 0 300 150">
    <path
        d="M132.58 79.9h13.16l-7-11.2L126 89h-5.82l15.54-24.32a3.61 3.61 0 013-1.58 3.65 3.65 0 013 1.54L157.37 89h-5.82l-2.73-4.53h-13.33l-2.91-4.52zM193 84.42V63.3h-5v23.19a2.42 2.42 0 00.72 1.71 2.53 2.53 0 001.8.75H213l2.9-4.53zm-81.58-3.78a8.67 8.67 0 000-17.34H89.79V89h4.93V67.82H111a4.16 4.16 0 010 8.31H97.13L111.85 89H119l-9.91-8.31zM59.44 89a12.83 12.83 0 010-25.65h14.91a12.83 12.83 0 010 25.65zM74 84.43a8.31 8.31 0 000-16.61H59.77a8.31 8.31 0 000 16.61zM167.66 89a12.83 12.83 0 010-25.65h17.71l-2.9 4.52H168a8.31 8.31 0 000 16.61h17.78l-2.9 4.52zM228 84.43a8.31 8.31 0 01-8-6h21.08l2.9-4.52H220a8.31 8.31 0 018-6.05h14.47l2.91-4.52h-17.74a12.83 12.83 0 000 25.65h15.22l2.9-4.52zM248 66a2.27 2.27 0 112.27 2.27A2.26 2.26 0 01248 66zm2.27 2.89a2.88 2.88 0 10-2.89-2.89 2.88 2.88 0 002.89 2.88zm-.27-4.56a2.28 2.28 0 01.85.09.91.91 0 01.63.9 1.31 1.31 0 010 .27.84.84 0 01-.4.55.28.28 0 01-.14.08l.75 1.34h-.73l-.66-1.23h-.44v1.23h-.63v-3.23zm.23 1.46a.59.59 0 00.53-.2.44.44 0 00.08-.28.43.43 0 00-.24-.39 1.59 1.59 0 00-.6-.06h-.18v.93z"
        fill="#FFFFFF"
    ></path>
</svg>